<svg xmlns="http://www.w3.org/2000/svg" width="40" height="40" viewBox="0 0 40 40" fill="none"><rect width="40" height="40" rx="20" fill="#855FA1"></rect><path d="M23.5451 20.81V20.99C23.5451 23.204 22.0511 24.716 19.3691 24.716C17.5511 24.716 16.2731 24.086 16.2731 24.068C16.3451 23.096 16.5071 21.98 16.5071 21.98L16.7591 21.854C16.7591 21.854 17.9291 22.196 18.6671 22.196C20.0171 22.196 20.4851 21.584 20.4851 20.792V20.702C20.4851 20 20.1071 19.496 18.7751 19.496H17.4251V17.336H19.2251C19.8371 17.3 20.3051 16.85 20.3051 16.13V16.04C20.3051 15.41 19.9991 14.924 18.7571 14.924C18.0191 14.924 16.9211 15.266 16.9211 15.266L16.6691 15.14C16.6691 15.14 16.5071 14.024 16.4351 13.052C16.4351 13.034 17.6771 12.404 19.4951 12.404C22.0151 12.404 23.1851 13.736 23.1851 15.464V15.644C23.1851 16.616 22.8611 17.426 22.1591 17.966V18.02C23.0231 18.614 23.5451 19.568 23.5451 20.81Z" fill="white"></path></svg>