<svg xmlns="http://www.w3.org/2000/svg" width="58" height="58" viewBox="0 0 58 58" fill="none"><rect width="58" height="58" rx="29" fill="#855FA1"></rect><path d="M34.4609 25.1025V25.3635C34.4609 28.5738 32.8166 29.7744 30.5198 31.8102L28.7711 33.3501C28.6145 33.4806 28.5884 33.5589 28.5884 33.7155V33.846H34.1999V37.5H23.4989V34.368C23.4989 32.4105 24.7517 31.3143 26.6309 29.6439C29.0321 27.5037 30.0239 26.5902 30.0239 25.494V25.3635C30.0239 24.45 29.4758 23.6148 27.5183 23.6148C26.1872 23.6148 24.4907 24.2412 24.4907 24.2412L24.1253 24.0585C24.1253 24.0585 23.8904 22.4403 23.786 21.0309C23.786 21.0048 25.7435 19.9608 28.5362 19.9608C32.4251 19.9608 34.4609 22.0488 34.4609 25.1025Z" fill="white"></path></svg>