<svg xmlns="http://www.w3.org/2000/svg" width="40" height="40" viewBox="0 0 40 40" fill="none"><rect width="40" height="40" rx="20" fill="#855FA1"></rect><path d="M23.7661 15.95V16.13C23.7661 18.344 22.6321 19.172 21.0481 20.576L19.8421 21.638C19.7341 21.728 19.7161 21.782 19.7161 21.89V21.98H23.5861V24.5H16.2061V22.34C16.2061 20.99 17.0701 20.234 18.3661 19.082C20.0221 17.606 20.7061 16.976 20.7061 16.22V16.13C20.7061 15.5 20.3281 14.924 18.9781 14.924C18.0601 14.924 16.8901 15.356 16.8901 15.356L16.6381 15.23C16.6381 15.23 16.4761 14.114 16.4041 13.142C16.4041 13.124 17.7541 12.404 19.6801 12.404C22.3621 12.404 23.7661 13.844 23.7661 15.95Z" fill="white"></path></svg>