<svg xmlns="http://www.w3.org/2000/svg" width="103" height="50" viewBox="0 0 103 50" fill="none"><g clip-path="url(#clip0_32_1663)"><path d="M13.3076 3.46632C13.5422 3.46632 13.7326 3.26943 13.7326 3.0268C13.7326 2.78417 13.5422 2.58728 13.3076 2.58728C13.073 2.58728 12.8827 2.78417 12.8827 3.0268C12.8827 3.26943 13.073 3.46632 13.3076 3.46632Z" fill="#290949"></path><path d="M20.4873 1.38419C20.8565 1.38419 21.1564 1.07394 21.1564 0.692097C21.1564 0.31025 20.8565 0 20.4873 0C20.1181 0 19.8182 0.31025 19.8182 0.692097C19.8182 1.07394 20.1181 1.38419 20.4873 1.38419Z" fill="#290949"></path><path d="M27.7285 3.46632C27.9632 3.46632 28.1535 3.26954 28.1535 3.0268C28.1535 2.78406 27.9632 2.58728 27.7285 2.58728C27.4938 2.58728 27.3036 2.78406 27.3036 3.0268C27.3036 3.26954 27.4938 3.46632 27.7285 3.46632Z" fill="#290949"></path><path d="M9.67547 21.6538C9.67547 21.6538 7.0874 22.2166 5.77606 25.1899C5.77606 25.1899 6.80475 21.8567 9.26592 21.2222C4.83773 21.614 4.57431 29.2967 0 30.4482C7.27198 32.6319 6.25868 23.9986 9.67547 21.6538Z" fill="#290949"></path><path d="M6.56827 18.4997C2.18047 20.5501 2.99189 26.2639 2.99189 26.2639C3.69563 20.8047 10.9676 19.8341 12.3751 15.952C11.5348 17.3601 9.73703 17.7718 9.73703 17.7718C10.7176 12.5075 13.3134 12.5552 13.3134 12.5552C9.32555 11.8273 6.4356 19.8043 2.64001 16.1947C4.63395 18.9233 6.56827 18.4997 6.56827 18.4997Z" fill="#290949"></path><path d="M20.8007 34.5532C20.8007 34.5532 24.7097 32.3635 22.7773 28.0698C22.7773 28.0698 23.6926 31.8862 20.8007 34.5532Z" fill="#290949"></path><path d="M36.3042 30.0863C36.3042 30.0863 38.4135 30.8739 39.9594 29.6448C39.9594 29.6448 37.1425 29.619 37.7347 26.6258C40.7439 14.725 32.4682 15.4887 31.526 11.7676C31.526 11.7676 32.9912 13.836 34.4775 13.8022C32.5336 13.3408 34.564 5.98824 27.8708 7.91338C28.7764 5.75953 27.1344 5.27427 27.1344 5.27427C28.6111 6.28258 26.1614 6.71613 24.4675 8.73276L26.8229 3.96565L24.3636 4.612C24.3848 4.71542 24.3982 4.82082 24.3982 4.93021C24.3982 5.75555 23.7503 6.42577 22.9523 6.42577C22.1544 6.42577 21.5064 5.75555 21.5064 4.93021C21.5064 4.51256 21.6737 4.13469 21.9409 3.86223L20.4911 2.12006L19.0798 3.81649C19.3759 4.09094 19.5644 4.48671 19.5644 4.93021C19.5644 5.75555 18.9164 6.42577 18.1184 6.42577C17.3205 6.42577 16.6725 5.75555 16.6725 4.93021C16.6725 4.82878 16.6821 4.72934 16.7013 4.63388L14.1594 3.96565L16.3475 8.39666C14.8901 6.36014 12.7961 5.72771 13.4134 3.89405C13.4134 3.89405 12.6269 5.46718 13.3076 6.44367C13.3076 6.44367 8.9025 4.76116 7.59116 7.04031C7.59116 7.04031 9.86966 3.72699 15.1842 11.6165C15.1842 11.6165 18.6164 10.9642 20.4931 15.067C22.4101 10.4212 26.4364 11.8492 26.4364 11.8492C26.4364 11.8472 26.4364 11.8512 26.4364 11.8492C28.638 12.7581 30.5358 14.7866 29.5282 18.442C29.5571 18.3167 29.7686 17.3064 29.0072 16.7575C29.0072 16.7575 29.286 19.4165 27.0767 20.7768C27.4401 20.4686 27.8573 19.8839 27.9996 18.7821C27.9996 18.7821 26.9075 21.2561 24.8616 19.158L25.0655 19.9077C25.0655 19.9077 23.9464 19.868 23.7003 18.1079C23.7003 18.1079 26.9075 19.2335 27.6574 15.0332C26.4979 17.5073 23.085 15.258 22.8119 17.0578C22.5389 18.8577 23.4253 18.8577 22.8119 19.9833C22.6081 19.6452 22.0275 19.3827 20.4911 19.3827C18.9548 19.3827 18.3761 19.6452 18.1703 19.9833C17.557 18.8577 18.4434 18.8577 18.1703 17.0578C17.8973 15.258 14.4863 17.5073 13.3249 15.0332C14.0748 19.2335 17.282 18.1079 17.282 18.1079C16.8821 19.9217 15.9168 19.9077 15.9168 19.9077L16.1206 19.158C14.0729 21.2581 12.9827 18.7821 12.9827 18.7821C13.2557 20.8822 14.6209 21.107 14.6209 21.107C13.6652 23.9569 15.6438 25.1561 15.6438 25.1561C14.2113 22.2406 17.1955 19.9396 17.1955 19.9396C16.8205 20.8385 21.2045 21.5564 19.1913 24.1796C17.532 26.3434 15.0977 26.5045 15.0977 26.5045C15.6438 27.0296 16.5302 27.0296 16.5302 27.0296C15.9168 28.9786 17.3493 31.3731 17.3493 31.3731C15.5073 25.9676 20.4873 25.1541 20.4873 25.1541C20.4873 25.1541 25.4692 25.9676 23.6253 31.3731C23.6253 31.3731 25.0578 28.9786 24.4444 27.0296C24.4444 27.0296 25.2366 27.0296 25.7846 26.5861C27.4536 27.1887 29.1648 28.8851 26.4287 33.6582C24.6232 36.8104 22.9427 39.537 21.839 42.0886C22.8754 38.9941 24.0464 35.814 23.2234 32.3575C23.458 37.1346 17.0474 38.1051 18.3953 42.2517C14.6228 40.2888 14.6555 37.4965 14.6555 37.4965C14.569 39.7498 15.4996 40.6945 15.4996 40.6945C10.0889 35.4361 11.2118 31.2498 11.2118 31.2498C10.1581 34.5889 10.7907 36.8084 10.7907 36.8084C7.97956 35.3148 5.96832 34.4278 6.08177 31.2498C3.97247 38.4412 14.8939 39.5251 12.1962 42.8762C13.9191 42.8762 13.8825 40.4777 13.8825 40.4777C14.444 44.33 20.6296 46.8697 20.6296 49.994C20.9103 46.1418 27.6266 45.565 26.7825 42.3452C26.3499 40.6945 27.1709 37.5403 29.907 36.4067C27.2882 38.0255 26.1941 41.3309 28.8649 43.439C27.5997 40.603 36.6368 36.6453 35.2293 32.0652C35.2293 32.0652 31.4318 29.7761 31.453 24.9215C31.453 24.9215 32.7182 32.264 37.9193 31.2458C37.9193 31.2458 36.9021 31.3054 36.3022 30.0823L36.3042 30.0863ZM25.3635 25.0925C25.052 25.4266 24.6617 25.7488 24.1771 26.0451C23.4138 25.713 22.5235 25.1482 21.7852 24.1856C19.772 21.5604 24.156 20.8444 23.781 19.9455C23.781 19.9455 26.7171 22.2127 25.3635 25.0945V25.0925Z" fill="#290949"></path><path d="M55.8243 25.0089C55.8243 28.4554 54.6456 31.3968 52.2902 33.8331C49.9348 36.2693 47.091 37.4885 43.7588 37.4885V32.6856C45.8123 32.6856 47.5621 31.9378 49.008 30.4402C50.4655 28.9327 51.1961 27.1229 51.1961 25.0108V17.3182H43.7588V12.5153H55.8224V25.0108L55.8243 25.0089Z" fill="#290949"></path><path d="M102.5 12.5135V37.4866H97.8564V27.4095H87.6426V37.4866H82.999V12.5135H87.6426V22.6066H97.8564V12.5135H102.5Z" fill="#290949"></path><path d="M68.5627 12.5114H68.4551L57.6874 37.4865H62.7001L63.9384 34.6127H73.0774L74.3157 37.4865H79.3284L68.5608 12.5114H68.5627ZM66.0093 29.8118L68.5089 24.0145L71.0085 29.8118H66.0112H66.0093Z" fill="#290949"></path></g><defs><clipPath id="clip0_32_1663"><rect width="102.5" height="50" fill="white"></rect></clipPath></defs></svg>