<svg xmlns="http://www.w3.org/2000/svg" width="155" height="50" viewBox="0 0 155 50" fill="none"><path d="M13.3077 3.46644C13.5423 3.46644 13.7327 3.26955 13.7327 3.02692C13.7327 2.78429 13.5423 2.5874 13.3077 2.5874C13.0732 2.5874 12.8828 2.78429 12.8828 3.02692C12.8828 3.26955 13.0732 3.46644 13.3077 3.46644Z" fill="#290949"></path><path d="M20.4855 1.38419C20.8547 1.38419 21.1547 1.07394 21.1547 0.692097C21.1547 0.31025 20.8547 0 20.4855 0C20.1164 0 19.8164 0.31025 19.8164 0.692097C19.8164 1.07394 20.1164 1.38419 20.4855 1.38419Z" fill="#290949"></path><path d="M27.7296 3.46644C27.9643 3.46644 28.1546 3.26966 28.1546 3.02692C28.1546 2.78418 27.9643 2.5874 27.7296 2.5874C27.4949 2.5874 27.3047 2.78418 27.3047 3.02692C27.3047 3.26966 27.4949 3.46644 27.7296 3.46644Z" fill="#290949"></path><path d="M9.67547 21.6537C9.67547 21.6537 7.0874 22.2166 5.77606 25.1898C5.77606 25.1898 6.80475 21.8566 9.26592 21.2222C4.83773 21.614 4.57431 29.2966 0 30.4481C7.27198 32.6318 6.25868 23.9985 9.67547 21.6537Z" fill="#290949"></path><path d="M6.56888 18.4995C2.18108 20.55 2.9925 26.2637 2.9925 26.2637C3.69624 20.8045 10.9682 19.834 12.3757 15.9519C11.5354 17.36 9.73764 17.7716 9.73764 17.7716C10.7183 12.5073 13.314 12.5551 13.314 12.5551C9.32616 11.8272 6.43621 19.8042 2.64062 16.1945C4.63456 18.9231 6.56888 18.4995 6.56888 18.4995Z" fill="#290949"></path><path d="M20.8008 34.5533C20.8008 34.5533 24.7098 32.3636 22.7774 28.0698C22.7774 28.0698 23.6927 31.8863 20.8008 34.5533Z" fill="#290949"></path><path d="M36.3033 30.0864C36.3033 30.0864 38.4126 30.8739 39.9585 29.6449C39.9585 29.6449 37.1416 29.619 37.7339 26.6259C40.743 14.725 32.4673 15.4887 31.5252 11.7677C31.5252 11.7677 32.9903 13.836 34.4767 13.8022C32.5327 13.3408 34.5632 5.9883 27.8699 7.91344C28.7756 5.75959 27.1335 5.27433 27.1335 5.27433C28.6102 6.28264 26.1606 6.7162 24.4666 8.73282L26.822 3.96571L24.3628 4.61206C24.3839 4.71548 24.3974 4.82088 24.3974 4.93027C24.3974 5.75561 23.7494 6.42583 22.9515 6.42583C22.1535 6.42583 21.5055 5.75561 21.5055 4.93027C21.5055 4.51262 21.6728 4.13475 21.9401 3.86229L20.4903 2.12012L19.079 3.81655C19.3751 4.091 19.5635 4.48677 19.5635 4.93027C19.5635 5.75561 18.9155 6.42583 18.1176 6.42583C17.3196 6.42583 16.6716 5.75561 16.6716 4.93027C16.6716 4.82884 16.6812 4.7294 16.7005 4.63394L14.1585 3.96571L16.3467 8.39672C14.8892 6.3602 12.7953 5.72777 13.4125 3.89411C13.4125 3.89411 12.6261 5.46724 13.3068 6.44373C13.3068 6.44373 8.90164 4.76122 7.5903 7.04037C7.5903 7.04037 9.86881 3.72705 15.1834 11.6166C15.1834 11.6166 18.6156 10.9642 20.4922 15.0671C22.4092 10.4213 26.4356 11.8492 26.4356 11.8492C26.4356 11.8512 26.4356 11.8473 26.4356 11.8492C28.6371 12.7581 30.5349 14.7867 29.5274 18.4421C29.5562 18.3168 29.7677 17.3065 29.0063 16.7576C29.0063 16.7576 29.2851 19.4166 27.0758 20.7769C27.4392 20.4686 27.8565 19.8839 27.9988 18.7821C27.9988 18.7821 26.9066 21.2562 24.8608 19.158L25.0646 19.9078C25.0646 19.9078 23.9455 19.868 23.6994 18.1079C23.6994 18.1079 26.9066 19.2336 27.6565 15.0333C26.4971 17.5073 23.0841 15.258 22.8111 17.0579C22.5381 18.8577 23.4245 18.8577 22.8111 19.9834C22.6073 19.6453 22.0266 19.3828 20.4903 19.3828C18.954 19.3828 18.3752 19.6453 18.1695 19.9834C17.5561 18.8577 18.4425 18.8577 18.1695 17.0579C17.8964 15.258 14.4854 17.5073 13.3241 15.0333C14.0739 19.2336 17.2812 18.1079 17.2812 18.1079C16.8812 19.9217 15.916 19.9078 15.916 19.9078L16.1198 19.158C14.072 21.2582 12.9818 18.7821 12.9818 18.7821C13.2548 20.8823 14.62 21.107 14.62 21.107C13.6644 23.957 15.6429 25.1562 15.6429 25.1562C14.2105 22.2406 17.1946 19.9396 17.1946 19.9396C16.8197 20.8385 21.2036 21.5565 19.1905 24.1797C17.5311 26.3435 15.0969 26.5046 15.0969 26.5046C15.6429 27.0296 16.5293 27.0296 16.5293 27.0296C15.916 28.9786 17.3485 31.3731 17.3485 31.3731C15.5064 25.9676 20.4864 25.1542 20.4864 25.1542C20.4864 25.1542 25.4684 25.9676 23.6244 31.3731C23.6244 31.3731 25.0569 28.9786 24.4435 27.0296C24.4435 27.0296 25.2357 27.0296 25.7837 26.5861C27.4527 27.1887 29.164 28.8852 26.4279 33.6582C24.6224 36.8105 22.9418 39.5371 21.8382 42.0887C22.8745 38.9941 24.0455 35.8141 23.2226 32.3576C23.4572 37.1346 17.0466 38.1052 18.3944 42.2518C14.6219 40.2888 14.6546 37.4966 14.6546 37.4966C14.5681 39.7499 15.4987 40.6946 15.4987 40.6946C10.088 35.4362 11.2109 31.2498 11.2109 31.2498C10.1572 34.589 10.7898 36.8085 10.7898 36.8085C7.97871 35.3149 5.96747 34.4279 6.08091 31.2498C3.97162 38.4413 14.8931 39.5251 12.1954 42.8762C13.9182 42.8762 13.8817 40.4778 13.8817 40.4778C14.4431 44.3301 20.6287 46.8697 20.6287 49.9941C20.9095 46.1418 27.6258 45.5651 26.7817 42.3452C26.349 40.6946 27.1701 37.5403 29.9062 36.4067C27.2873 38.0256 26.1933 41.331 28.864 43.4391C27.5988 40.6031 36.6359 36.6454 35.2285 32.0652C35.2285 32.0652 31.431 29.7761 31.4521 24.9215C31.4521 24.9215 32.7173 32.2641 37.9184 31.2458C37.9184 31.2458 36.9013 31.3055 36.3014 30.0824L36.3033 30.0864ZM25.3626 25.0926C25.0511 25.4267 24.6608 25.7489 24.1763 26.0452C23.4129 25.7131 22.5227 25.1482 21.7843 24.1857C19.7712 21.5605 24.1551 20.8445 23.7802 19.9456C23.7802 19.9456 26.7163 22.2128 25.3626 25.0945V25.0926Z" fill="#290949"></path><path d="M45.7917 33.5267C46.1123 33.5478 46.7535 33.4633 47.2878 33.3365C50.7716 32.4915 53.4219 29.5444 53.828 26.0798C53.8815 25.5728 53.9349 23.1855 53.9349 20.7877V16.4358H45.1719V19.7103H50.5151V22.7525C50.5151 26.1643 50.4511 26.6079 49.8206 27.6325C48.9763 29.0057 47.5122 29.9775 45.9626 30.1994L45.1719 30.3155L45.1932 31.9105L45.2253 33.495L45.7917 33.5267Z" fill="#290949"></path><path fill-rule="evenodd" clip-rule="evenodd" d="M68.9495 33.5478C70.0182 33.5478 70.7128 33.5055 70.7128 33.4421C70.7127 33.389 70.296 32.428 69.7938 31.3085C69.2808 30.1888 68.5863 28.6255 68.2336 27.8438C67.8809 27.0622 67.3145 25.7945 66.9726 25.0446C66.3314 23.6608 64.9421 20.5659 63.7345 17.8829C63.3818 17.0907 63.0505 16.4358 63.0185 16.4358C62.9757 16.4359 62.8368 16.6577 62.7192 16.9322C62.3772 17.7351 60.2934 22.3511 57.6752 28.1079C57.0126 29.555 56.3394 31.0549 56.1791 31.4352C56.0188 31.8155 55.7516 32.3965 55.602 32.7345C55.4524 33.0725 55.3241 33.3894 55.3241 33.4527C55.3242 33.5161 55.9761 33.5373 57.0981 33.5267L58.8721 33.495L59.2889 32.5972L59.6949 31.6992L62.9971 31.6676L66.2993 31.6465L66.7374 32.5972L67.1863 33.5478H68.9495ZM63.0185 28.2663C61.4155 28.2663 61.2873 28.2557 61.3407 28.0761C61.3729 27.9809 61.7468 27.1254 62.1742 26.1748C62.6122 25.235 62.9862 24.4641 63.0185 24.4636C63.0719 24.4636 64.4719 27.5268 64.6856 28.0761C64.7498 28.2557 64.6215 28.2663 63.0185 28.2663Z" fill="#290949"></path><path d="M87.4909 16.4358H84.0711V23.3017H76.8042V16.4358H73.3845L73.4059 24.9601L73.4379 33.495H76.7508L76.7828 30.0937L76.8042 26.6819H84.0711L84.0925 30.0937L84.1246 33.495L87.4909 33.5583V16.4358Z" fill="#290949"></path><path d="M95.8208 25.9302V29.9905H100.345C100.903 29.9905 101.382 29.7907 101.781 29.3911C102.173 28.999 102.369 28.524 102.369 27.966C102.369 27.408 102.173 26.9292 101.781 26.5296C101.382 26.13 100.903 25.9302 100.345 25.9302H95.8208ZM95.8208 20.0037V22.8086H100.345C100.729 22.8086 101.061 22.6729 101.34 22.4014C101.612 22.13 101.747 21.7982 101.747 21.4061C101.747 21.0216 101.612 20.6898 101.34 20.4108C101.061 20.1394 100.729 20.0037 100.345 20.0037H95.8208ZM103.885 24.2223C104.956 25.2403 105.491 26.4881 105.491 27.966C105.491 29.3835 104.99 30.5937 103.987 31.5965C102.976 32.6069 101.762 33.1121 100.345 33.1121H92.6992V16.8821H100.345C101.597 16.8821 102.663 17.3232 103.546 18.2054C104.428 19.0951 104.869 20.162 104.869 21.4061C104.869 22.4617 104.541 23.4005 103.885 24.2223Z" fill="#855FA1"></path><path d="M107.312 16.8821H110.433V29.9905H120.104V33.1121H107.312V16.8821Z" fill="#855FA1"></path><path d="M126.505 28.5315C127.485 29.5042 128.662 29.9905 130.034 29.9905C131.414 29.9905 132.59 29.5042 133.563 28.5315C134.543 27.5513 135.033 26.375 135.033 25.0027C135.033 23.6229 134.543 22.4467 133.563 21.474C132.59 20.4938 131.414 20.0037 130.034 20.0037C128.662 20.0037 127.485 20.4938 126.505 21.474C125.532 22.4467 125.046 23.6229 125.046 25.0027C125.046 26.375 125.532 27.5513 126.505 28.5315ZM130.034 16.8821C132.281 16.8821 134.196 17.6738 135.779 19.2572C137.363 20.8406 138.155 22.7558 138.155 25.0027C138.155 27.2421 137.363 29.1536 135.779 30.737C134.196 32.3204 132.281 33.1121 130.034 33.1121C127.794 33.1121 125.883 32.3204 124.3 30.737C122.716 29.1536 121.925 27.2421 121.925 25.0027C121.925 22.7558 122.716 20.8406 124.3 19.2572C125.883 17.6738 127.794 16.8821 130.034 16.8821Z" fill="#855FA1"></path><path d="M153.83 30.737C152.247 32.3204 150.332 33.1121 148.085 33.1121C145.845 33.1121 143.934 32.3204 142.351 30.737C140.767 29.1536 139.975 27.2421 139.975 25.0027C139.975 22.7558 140.767 20.8406 142.351 19.2572C143.934 17.6738 145.845 16.8821 148.085 16.8821C150.332 16.8821 152.247 17.6738 153.83 19.2572L151.625 21.4627C150.645 20.49 149.465 20.0037 148.085 20.0037C146.713 20.0037 145.536 20.49 144.556 21.4627C143.583 22.4353 143.097 23.6154 143.097 25.0027C143.097 26.3826 143.583 27.5588 144.556 28.5315C145.536 29.5042 146.713 29.9905 148.085 29.9905C149.238 29.9905 150.264 29.6399 151.161 28.9387V26.5635H147.463V23.4419H154.283V30.2733L153.83 30.737Z" fill="#855FA1"></path></svg>