<svg xmlns="http://www.w3.org/2000/svg" width="160" height="35" viewBox="0 0 160 35" fill="none"><path d="M0.223695 31.5124L0.724493 31.2096C0.724493 31.2096 2.0802 31.5604 3.83601 31.5593C7.29846 31.5571 8.60347 29.547 8.59975 23.817L8.58473 0.697786L11.8459 0.695667L11.8612 24.3166C11.8656 31.1508 9.76083 34.4697 4.3389 34.4732C1.92993 34.4748 0.0215893 33.9227 0.0215893 33.9227C0.0702613 33.1678 0.221351 31.5101 0.221351 31.5101L0.223695 31.5124Z" fill="#855FA1"></path><path d="M32.8384 24.7056L21.2453 24.7132L18.5403 33.8632L15.127 33.8654L25.2938 0.688657L28.8078 0.686373L39.0177 33.8499L35.6044 33.8521L32.8384 24.7056ZM22.1471 21.7983L31.9843 21.7919L27.7589 7.72293C27.4562 6.6681 27.1554 4.90991 27.1554 4.90991L26.9541 4.91004C26.9541 4.91004 26.6532 6.7202 26.3542 7.72384L22.1471 21.7983Z" fill="#855FA1"></path><path d="M61.0928 18.5058L46.5383 18.5153L46.5483 33.8437L43.2872 33.8458L43.2656 0.675656L46.5267 0.673536L46.5364 15.601L61.0909 15.5916L61.0812 0.664077L64.3424 0.661958L64.3639 33.8321L61.1028 33.8342L61.0928 18.5058Z" fill="#855FA1"></path><path d="M82.2275 34.4251C74.8508 34.4299 68.9771 30.8654 68.9692 18.7536L68.968 16.9953C68.9601 4.78271 74.077 0.0552018 82.9075 0.0494628C85.567 0.0477344 88.0279 0.749488 88.0279 0.749488C87.8287 3.96628 87.2789 8.23832 87.2789 8.23832L86.626 8.5412C86.626 8.5412 85.069 8.29136 83.9148 8.29211C80.8527 8.2941 79.0982 10.3561 79.1026 17.0895L79.1033 18.1445C79.1073 24.327 81.267 26.1848 84.177 26.1829C85.2305 26.1822 86.8876 25.6794 86.8876 25.6794L87.541 25.9814C87.541 25.9814 88.1966 29.8002 88.55 33.2183C88.55 33.2183 86.191 34.4249 82.2275 34.4274L82.2275 34.4251Z" fill="#855FA1"></path><path d="M90.7836 0.644831L100.82 0.638309L100.836 25.5675L107.309 25.5633L107.314 33.8066L90.8028 33.8173L90.7813 0.64718L90.7836 0.644831Z" fill="#855FA1"></path><path d="M132.391 0.617175L132.405 22.0272C132.411 30.7723 128.148 34.3926 121.122 34.3972L120.118 34.3978C113.092 34.4024 108.824 30.7876 108.819 22.0426L108.805 0.632504L118.841 0.625981L118.856 23.7452C118.857 25.4028 119.56 26.1572 120.613 26.1565C121.667 26.1559 122.369 25.4005 122.368 23.7429L122.352 0.623699L132.389 0.617177L132.391 0.617175Z" fill="#855FA1"></path><path d="M135.402 0.615567L148.1 0.607314C154.775 0.602976 158.239 3.7166 158.243 9.44658L158.243 9.84748C158.245 13.0641 157.142 15.4774 153.982 16.5344L153.982 16.7361C157.949 17.8401 159.004 20.9553 159.007 24.5236L159.007 24.9269C159.01 29.2994 157.006 33.774 150.632 33.7782L135.426 33.788L135.405 0.617912L135.402 0.615567ZM145.443 8.14899L145.447 13.7782L146.903 13.7772C147.957 13.7765 148.46 12.9228 148.459 11.4129L148.458 10.4071C148.457 8.94886 147.955 8.14501 146.701 8.14583L145.446 8.14664L145.443 8.14899ZM145.452 20.7132L145.455 26.2416L147.211 26.2404C148.365 26.2397 148.966 25.686 148.965 24.0284L148.965 23.0226C148.964 21.4635 148.16 20.7114 146.805 20.7123L145.449 20.7132L145.452 20.7132Z" fill="#855FA1"></path></svg>