<svg xmlns="http://www.w3.org/2000/svg" width="96" height="16" viewBox="0 0 96 16" fill="none"><path fill-rule="evenodd" clip-rule="evenodd" d="M7.99984 1.93066L9.9565 5.926L14.3332 6.57066L11.1665 9.67866L11.9138 14.0693L7.99984 11.9953L4.08584 14.0693L4.83317 9.67866L1.6665 6.57066L6.0425 5.926L7.99984 1.93066Z" fill="#A163CE" stroke="#A163CE" stroke-width="1.5" stroke-linecap="round" stroke-linejoin="round"></path><path fill-rule="evenodd" clip-rule="evenodd" d="M27.9998 1.93066L29.9565 5.926L34.3332 6.57066L31.1665 9.67866L31.9138 14.0693L27.9998 11.9953L24.0858 14.0693L24.8332 9.67866L21.6665 6.57066L26.0425 5.926L27.9998 1.93066Z" fill="#A163CE" stroke="#A163CE" stroke-width="1.5" stroke-linecap="round" stroke-linejoin="round"></path><path fill-rule="evenodd" clip-rule="evenodd" d="M47.9998 1.93066L49.9565 5.926L54.3332 6.57066L51.1665 9.67866L51.9138 14.0693L47.9998 11.9953L44.0858 14.0693L44.8332 9.67866L41.6665 6.57066L46.0425 5.926L47.9998 1.93066Z" fill="#A163CE" stroke="#A163CE" stroke-width="1.5" stroke-linecap="round" stroke-linejoin="round"></path><path fill-rule="evenodd" clip-rule="evenodd" d="M67.9998 1.93066L69.9565 5.926L74.3332 6.57066L71.1665 9.67866L71.9138 14.0693L67.9998 11.9953L64.0858 14.0693L64.8332 9.67866L61.6665 6.57066L66.0425 5.926L67.9998 1.93066Z" fill="#A163CE" stroke="#A163CE" stroke-width="1.5" stroke-linecap="round" stroke-linejoin="round"></path><path fill-rule="evenodd" clip-rule="evenodd" d="M87.9998 1.93066L89.9565 5.926L94.3332 6.57066L91.1665 9.67866L91.9138 14.0693L87.9998 11.9953L84.0858 14.0693L84.8332 9.67866L81.6665 6.57066L86.0425 5.926L87.9998 1.93066Z" fill="#A163CE" stroke="#A163CE" stroke-width="1.5" stroke-linecap="round" stroke-linejoin="round"></path></svg>